<?xml version="1.0" encoding="UTF-8"?>
<svg id="Layer_1" xmlns="http://www.w3.org/2000/svg" version="1.1" viewBox="0 0 1300 900">
  <!-- Generator: Adobe Illustrator 30.1.0, SVG Export Plug-In . SVG Version: 2.1.1 Build 136)  -->
  <defs>
    <style>
      .st0 {
        fill: #36f;
      }

      .st1 {
        fill: #edf2ff;
      }
    </style>
  </defs>
  <rect class="st0" x="-66.43" y="-54.28" width="1445.6" height="1008.56"/>
  <g>
    <g>
      <path class="st1" d="M174.48,279.38c-6.36-6.36-14.27-9.56-23.72-9.56s-17.4,3.2-23.76,9.56-9.56,14.13-9.56,23.34,3.2,16.98,9.56,23.34c6.36,6.36,14.27,9.53,23.76,9.53s17.36-3.16,23.72-9.53,9.56-14.13,9.56-23.34-3.2-16.98-9.56-23.34ZM124.36,366.02v264.17c35.18-7.98,52.76-32.16,52.76-72.44v-191.73h-52.76Z"/>
      <path class="st1" d="M429.24,521.94c-11.63,0-17.47-5.83-17.47-17.47v-138.45h-52.76v116.52c0,13.29-4.22,23.97-12.62,32.09-8.37,8.12-19.33,12.16-32.86,12.16-12.72,0-23.02-3.9-30.86-11.77-7.84-7.84-11.77-18.38-11.77-31.67v-117.32h-52.76v132.75c0,23.83,7.17,42.99,21.51,57.47,14.34,14.48,33.14,21.72,56.41,21.72,28.68,0,51.18-11.92,67.41-35.75,7.84,20.56,26.11,30.86,54.8,30.86h15.01v-51.14h-4.04Z"/>
      <path class="st1" d="M669.58,521.94c-11.63,0-17.43-5.83-17.43-17.47v-62.91c0-24.36-7.38-43.86-22.14-58.45-14.73-14.62-34.3-21.93-58.66-21.93-27.59,0-49.52,10.16-65.76,30.44v-25.59h-52.76v207.06h52.76v-113.67c0-14.06,4.46-25.45,13.39-34.09,8.93-8.68,20.7-13,35.32-13,13.53,0,24.43,4.22,32.69,12.58,8.26,8.4,12.37,19.65,12.37,33.71v57.22c0,38.17,19.89,57.26,59.68,57.26h15.04v-51.14h-4.5,0Z"/>
      <path class="st1" d="M883.73,392.2c-21.26-20.7-47.73-31.04-79.4-31.04s-58.1,10.33-79.36,31.04c-21.23,20.7-31.84,46.5-31.84,77.36s10.61,56.62,31.84,77.33c21.26,20.7,47.73,31.07,79.36,31.07s58.13-10.37,79.4-31.07c21.23-20.7,31.84-46.47,31.84-77.33s-10.61-56.66-31.84-77.36ZM844.97,510.37c-10.86,10.93-24.39,16.41-40.63,16.41s-29.77-5.48-40.56-16.41c-10.86-10.97-16.27-24.57-16.27-40.81s5.41-29.84,16.27-40.81c10.79-10.97,24.32-16.45,40.56-16.45s29.77,5.48,40.63,16.45c10.79,10.97,16.2,24.57,16.2,40.81s-5.41,29.84-16.2,40.81Z"/>
      <path class="st1" d="M1189.06,539.37c-6.22,0-11.21-1.86-15.01-5.66s-5.69-8.79-5.69-15.04v-152.65h-34.9v39.4c-8.65-13.81-19.96-24.64-33.88-32.48-13.95-7.84-29.45-11.77-46.5-11.77-29.49,0-54.13,10.33-73.88,31.04-19.75,20.7-29.63,46.5-29.63,77.36s9.88,56.62,29.63,77.33c19.75,20.7,44.39,31.07,73.88,31.07,17.05,0,32.62-4.01,46.68-11.99,14.09-7.98,25.45-19.02,34.13-33.07,1.34,12.97,6.15,22.92,14.41,29.81,8.22,6.92,19.54,10.37,33.88,10.37h10.97v-33.71h-4.08ZM1112.34,522.95c-14.06,14.2-31.63,21.3-52.76,21.3s-39.12-7.1-53.18-21.3c-14.06-14.23-21.12-32.02-21.12-53.39s7.06-39.19,21.12-53.39c14.06-14.2,31.81-21.3,53.18-21.3s38.7,7.1,52.76,21.3c14.09,14.2,21.12,32.02,21.12,53.39s-7.03,39.15-21.12,53.39Z"/>
      <path class="st1" d="M1209.38,366.02v207.06h34.9v-207.06h-34.9ZM1243.26,284.83c-4.46-4.32-9.95-6.47-16.45-6.47s-12.37,2.14-16.84,6.47c-4.46,4.36-6.71,9.91-6.71,16.66s2.25,11.99,6.71,16.45,10.09,6.68,16.84,6.68,11.99-2.21,16.45-6.68,6.71-9.95,6.71-16.45-2.25-12.3-6.71-16.66Z"/>
    </g>
    <path class="st1" d="M50.03,563.76h58.1v66.39h0c-32.05,0-58.1-26.04-58.1-58.1v-8.29h0Z"/>
  </g>
</svg>